<svg width="26" height="26" viewBox="0 0 26 26" fill="none" xmlns="http://www.w3.org/2000/svg">
<path d="M19.3453 14.4871C19.3497 13.3164 19.041 12.1659 18.4512 11.1547C17.8614 10.1435 17.0119 9.3084 15.9908 8.7359C14.9697 8.16339 13.8141 7.87432 12.6437 7.89863C11.4733 7.92294 10.3307 8.25975 9.33429 8.87416C8.33785 9.48857 7.5238 10.3582 6.97649 11.3931C6.42919 12.4279 6.16853 13.5902 6.22151 14.7597C6.2745 15.9291 6.63921 17.0631 7.27785 18.0442C7.9165 19.0253 8.80586 19.8178 9.85378 20.3396V23.5659C9.85868 23.7567 9.9379 23.938 10.0746 24.0711C10.2112 24.2043 10.3945 24.2788 10.5853 24.2787H14.9747C15.1655 24.2788 15.3488 24.2043 15.4855 24.0711C15.6221 23.938 15.7014 23.7567 15.7063 23.5659V20.2833C16.7872 19.7452 17.6988 18.9195 18.3408 17.8969C18.9828 16.8743 19.3304 15.6944 19.3453 14.4871V14.4871Z" stroke="#FCC400" stroke-width="2" stroke-linecap="round" stroke-linejoin="round"/>
<path d="M12.78 1V3.81369" stroke="#FCC400" stroke-width="2" stroke-linecap="round" stroke-linejoin="round"/>
<path d="M20.2831 3.68237L18.2948 5.68947" stroke="#FCC400" stroke-width="2" stroke-linecap="round" stroke-linejoin="round"/>
<path d="M24.56 9.49731H21.7463" stroke="#FCC400" stroke-width="2" stroke-linecap="round" stroke-linejoin="round"/>
<path d="M5.27686 3.68237L7.2652 5.68947" stroke="#FCC400" stroke-width="2" stroke-linecap="round" stroke-linejoin="round"/>
<path d="M1 9.49731H3.81369" stroke="#FCC400" stroke-width="2" stroke-linecap="round" stroke-linejoin="round"/>
</svg>
