<svg width="35" height="53" viewBox="0 0 35 53" fill="none" xmlns="http://www.w3.org/2000/svg">
<path fill-rule="evenodd" clip-rule="evenodd" d="M20.8856 0.37132C15.4355 1.59679 11.7091 3.66676 7.70344 7.69448C4.31614 11.1004 2.54312 13.9772 1.09605 18.4159C0.312251 20.8204 0.166931 21.7583 0.04408 25.1983C-0.0647643 28.2523 0.0186927 29.7703 0.398626 31.6605C3.44364 46.8006 18.5774 56.1667 33.2845 52.0126L34.9907 51.5306V43.6385C34.9907 39.2979 34.8754 35.7464 34.7345 35.7464C34.5938 35.7464 34.3201 35.9388 34.1263 36.1738C33.9326 36.4087 33.2255 36.9245 32.5552 37.3199C31.8695 37.7244 31.0533 38.5466 30.688 39.2007C29.4889 41.3482 26.9044 43.3462 24.1938 44.2213C22.8693 44.6487 19.5249 45.1048 19.5249 44.8581C19.5249 44.7532 19.9856 44.446 20.5491 44.1757C22.1491 43.4076 24.1491 41.3899 24.4701 40.2203C24.8232 38.9322 24.7462 38.8033 23.4999 38.5997C20.5716 38.1212 16.9651 35.2638 15.4326 32.2074C12.9636 27.2844 13.8594 21.731 17.7553 17.8096C20.5526 14.9938 24.1836 13.7616 28.0559 14.3135C30.3144 14.6355 31.7767 15.2215 33.6092 16.5401L35 17.5402L34.9224 9.39052L34.8448 1.24078L32.948 0.694137C30.3127 -0.0654674 23.625 -0.244353 20.8856 0.37132Z" fill="#442DE3"/>
</svg>
