<svg width="74" height="9" viewBox="0 0 74 9" fill="none" xmlns="http://www.w3.org/2000/svg">
<path d="M4.50199 4.38H8.00199V4.86C8.00199 5.82 7.68533 6.60667 7.05199 7.22C6.42533 7.82667 5.59866 8.13 4.57199 8.13C3.49199 8.13 2.59866 7.78 1.89199 7.08C1.19199 6.38 0.841993 5.52 0.841993 4.5C0.841993 3.48667 1.19199 2.63 1.89199 1.93C2.59866 1.22333 3.47199 0.869999 4.51199 0.869999C5.15866 0.869999 5.75199 1.02 6.29199 1.32C6.83866 1.61333 7.26199 2.01667 7.56199 2.53L6.57199 3.1C6.38533 2.76 6.10866 2.49 5.74199 2.29C5.37533 2.09 4.96533 1.99 4.51199 1.99C3.77866 1.99 3.17533 2.23 2.70199 2.71C2.22866 3.19667 1.99199 3.79667 1.99199 4.51C1.99199 5.23 2.22866 5.82667 2.70199 6.3C3.18866 6.77333 3.81533 7.01 4.58199 7.01C5.19533 7.01 5.69866 6.86667 6.09199 6.58C6.48533 6.29333 6.73533 5.90333 6.84199 5.41H4.50199V4.38ZM13.4133 7.37C12.9067 7.87667 12.2833 8.13 11.5433 8.13C10.8033 8.13 10.18 7.87667 9.67332 7.37C9.15999 6.85667 8.90332 6.23333 8.90332 5.5C8.90332 4.76667 9.15999 4.14333 9.67332 3.63C10.18 3.12333 10.8033 2.87 11.5433 2.87C12.2833 2.87 12.9067 3.12333 13.4133 3.63C13.9267 4.14333 14.1833 4.76667 14.1833 5.5C14.1833 6.23333 13.9267 6.85667 13.4133 7.37ZM9.98332 5.5C9.98332 5.95333 10.1333 6.33 10.4333 6.63C10.7333 6.93 11.1033 7.08 11.5433 7.08C11.9833 7.08 12.3533 6.93 12.6533 6.63C12.9533 6.33 13.1033 5.95333 13.1033 5.5C13.1033 5.04667 12.9533 4.67 12.6533 4.37C12.3533 4.07 11.9833 3.92 11.5433 3.92C11.1033 3.92 10.7333 4.07 10.4333 4.37C10.1333 4.67 9.98332 5.04667 9.98332 5.5ZM43.2427 6.8L44.6327 3H45.8127L43.8627 8H42.6127L40.6627 3H41.8427L43.2427 6.8ZM51.3313 5.96H47.3513C47.4313 6.33333 47.6113 6.62333 47.8913 6.83C48.178 7.03667 48.5313 7.14 48.9513 7.14C49.518 7.14 49.948 6.93333 50.2413 6.52L51.1313 7.04C50.6446 7.76667 49.9146 8.13 48.9413 8.13C48.1346 8.13 47.478 7.88333 46.9713 7.39C46.4713 6.89 46.2213 6.26 46.2213 5.5C46.2213 4.76 46.468 4.13667 46.9613 3.63C47.448 3.12333 48.0813 2.87 48.8613 2.87C49.588 2.87 50.188 3.12667 50.6613 3.64C51.1346 4.15333 51.3713 4.77667 51.3713 5.51C51.3713 5.64333 51.358 5.79333 51.3313 5.96ZM47.3413 5.08H50.2813C50.208 4.68667 50.0413 4.38333 49.7813 4.17C49.528 3.95667 49.218 3.85 48.8513 3.85C48.4513 3.85 48.118 3.96 47.8513 4.18C47.5846 4.4 47.4146 4.7 47.3413 5.08ZM53.6016 3V3.84C53.8749 3.22 54.3883 2.91 55.1416 2.91V4.08C54.7349 4.05333 54.3749 4.15333 54.0616 4.38C53.7549 4.6 53.6016 4.96667 53.6016 5.48V8H52.5216V3H53.6016ZM56.9338 4.38C56.9338 4.53333 57.0138 4.66 57.1738 4.76C57.3338 4.85333 57.5671 4.94333 57.8738 5.03C58.1071 5.08333 58.3105 5.14 58.4838 5.2C58.6571 5.26 58.8405 5.35 59.0338 5.47C59.2271 5.58333 59.3738 5.73667 59.4738 5.93C59.5805 6.11667 59.6305 6.33667 59.6238 6.59C59.6238 7.07 59.4371 7.44667 59.0638 7.72C58.6905 7.99333 58.2271 8.13 57.6738 8.13C57.1805 8.13 56.7571 8.02667 56.4038 7.82C56.0505 7.61333 55.7938 7.32667 55.6338 6.96L56.5638 6.42C56.7305 6.9 57.1005 7.14 57.6738 7.14C58.2405 7.14 58.5238 6.95333 58.5238 6.58C58.5238 6.30667 58.2071 6.09333 57.5738 5.94C57.3338 5.88 57.1305 5.82 56.9638 5.76C56.8038 5.7 56.6238 5.61333 56.4238 5.5C56.2305 5.38667 56.0805 5.23667 55.9738 5.05C55.8738 4.86333 55.8271 4.64667 55.8338 4.4C55.8338 3.94 56.0071 3.57 56.3538 3.29C56.7071 3.01 57.1438 2.87 57.6638 2.87C58.0771 2.87 58.4438 2.96333 58.7638 3.15C59.0905 3.33 59.3405 3.58333 59.5138 3.91L58.6038 4.42C58.4371 4.04 58.1238 3.85 57.6638 3.85C57.4505 3.85 57.2738 3.89667 57.1338 3.99C57.0005 4.08333 56.9338 4.21333 56.9338 4.38ZM61.7346 2.05C61.6012 2.18333 61.4412 2.25 61.2546 2.25C61.0679 2.25 60.9046 2.18333 60.7646 2.05C60.6312 1.91 60.5646 1.74667 60.5646 1.56C60.5646 1.37333 60.6312 1.21333 60.7646 1.08C60.8979 0.94 61.0612 0.869999 61.2546 0.869999C61.4479 0.869999 61.6112 0.94 61.7446 1.08C61.8779 1.21333 61.9446 1.37333 61.9446 1.56C61.9446 1.74667 61.8746 1.91 61.7346 2.05ZM61.7946 8H60.7146V3H61.7946V8ZM67.4786 7.37C66.9719 7.87667 66.3486 8.13 65.6086 8.13C64.8686 8.13 64.2452 7.87667 63.7386 7.37C63.2252 6.85667 62.9686 6.23333 62.9686 5.5C62.9686 4.76667 63.2252 4.14333 63.7386 3.63C64.2452 3.12333 64.8686 2.87 65.6086 2.87C66.3486 2.87 66.9719 3.12333 67.4786 3.63C67.9919 4.14333 68.2486 4.76667 68.2486 5.5C68.2486 6.23333 67.9919 6.85667 67.4786 7.37ZM64.0486 5.5C64.0486 5.95333 64.1986 6.33 64.4986 6.63C64.7986 6.93 65.1686 7.08 65.6086 7.08C66.0486 7.08 66.4186 6.93 66.7186 6.63C67.0186 6.33 67.1686 5.95333 67.1686 5.5C67.1686 5.04667 67.0186 4.67 66.7186 4.37C66.4186 4.07 66.0486 3.92 65.6086 3.92C65.1686 3.92 64.7986 4.07 64.4986 4.37C64.1986 4.67 64.0486 5.04667 64.0486 5.5ZM72.0551 2.87C72.6351 2.87 73.0985 3.05667 73.4451 3.43C73.7985 3.79667 73.9751 4.29667 73.9751 4.93V8H72.8951V5.04C72.8951 4.66667 72.7951 4.38 72.5951 4.18C72.3951 3.98 72.1218 3.88 71.7751 3.88C71.3818 3.88 71.0718 4.00333 70.8451 4.25C70.6185 4.49 70.5051 4.84667 70.5051 5.32V8H69.4251V3H70.5051V3.64C70.8385 3.12667 71.3551 2.87 72.0551 2.87Z" fill="black"/>
<path d="M18.0799 1H20.6899C21.3566 1 21.9232 1.22667 22.3899 1.68C22.8499 2.13333 23.0799 2.69 23.0799 3.35C23.0799 4.01 22.8499 4.56667 22.3899 5.02C21.9232 5.47333 21.3566 5.7 20.6899 5.7H19.4599V8H18.0799V1ZM19.4599 4.41H20.6899C20.9832 4.41 21.2266 4.31 21.4199 4.11C21.6132 3.90333 21.7099 3.65 21.7099 3.35C21.7099 3.04333 21.6132 2.79 21.4199 2.59C21.2266 2.39 20.9832 2.29 20.6899 2.29H19.4599V4.41ZM29.5083 8H28.0183L26.6083 5.57H25.5583V8H24.1783V1H26.9783C27.625 1 28.175 1.22667 28.6283 1.68C29.0817 2.13333 29.3083 2.68 29.3083 3.32C29.3083 3.75333 29.185 4.15667 28.9383 4.53C28.6917 4.89667 28.365 5.17333 27.9583 5.36L29.5083 8ZM26.9783 2.29H25.5583V4.36H26.9783C27.2383 4.36 27.4617 4.26 27.6483 4.06C27.835 3.85333 27.9283 3.60667 27.9283 3.32C27.9283 3.03333 27.835 2.79 27.6483 2.59C27.4617 2.39 27.2383 2.29 26.9783 2.29ZM36.3328 7.09C35.6261 7.79 34.7661 8.14 33.7528 8.14C32.7394 8.14 31.8794 7.79 31.1728 7.09C30.4728 6.37667 30.1228 5.51333 30.1228 4.5C30.1228 3.48 30.4728 2.62 31.1728 1.92C31.8794 1.21333 32.7394 0.86 33.7528 0.86C34.7661 0.86 35.6261 1.21333 36.3328 1.92C37.0394 2.62 37.3928 3.48 37.3928 4.5C37.3928 5.52 37.0394 6.38333 36.3328 7.09ZM32.1428 6.15C32.5694 6.57667 33.1061 6.79 33.7528 6.79C34.3994 6.79 34.9361 6.57667 35.3628 6.15C35.7961 5.71667 36.0128 5.16667 36.0128 4.5C36.0128 3.83333 35.7961 3.28333 35.3628 2.85C34.9294 2.41667 34.3928 2.2 33.7528 2.2C33.1128 2.2 32.5761 2.41667 32.1428 2.85C31.7094 3.28333 31.4928 3.83333 31.4928 4.5C31.4928 5.16667 31.7094 5.71667 32.1428 6.15Z" fill="#442DE3"/>
</svg>
