<svg width="133" height="134" viewBox="0 0 133 134" fill="none" xmlns="http://www.w3.org/2000/svg">
<path d="M28.4283 121.204L30.0941 120.493C31.8631 119.737 33.9091 120.559 34.6641 122.328L35.3937 124.036C36.1485 125.804 35.3275 127.851 33.5583 128.606L31.8925 129.317C30.1242 130.073 28.0774 129.251 27.3224 127.482L26.5931 125.774C25.838 124.005 26.6598 121.958 28.4283 121.204ZM11.3665 73.5561C15.6933 71.7083 19.6297 71.8624 23.1755 74.0175C25.9856 75.7125 28.0965 78.211 29.5064 81.5128C31.8651 87.0363 31.6056 93.3567 28.7306 100.475C27.7278 102.956 27.6621 105.374 28.5326 107.729C28.8035 108.522 29.1397 109.389 29.5403 110.328C30.2962 112.097 29.4742 114.143 27.7058 114.898L26.0399 115.609C24.2709 116.364 22.2249 115.542 21.469 113.773C19.3177 108.735 18.9582 104.463 20.3897 100.957C21.9345 97.1664 22.6104 93.6635 22.4154 90.4479C22.2915 88.5819 21.847 86.752 21.0812 84.9586C20.2916 83.1079 19.2585 81.8327 17.9833 81.1319C16.5492 80.2968 15.0126 80.3634 13.3736 81.3326C11.8363 82.2246 11.1478 83.8474 11.3127 86.2018C11.3181 86.3168 11.3263 86.4329 11.3367 86.5511C11.4875 88.2704 10.3437 89.8396 8.66281 90.232L7.01537 90.6166C4.9751 91.093 2.9709 89.6729 2.75387 87.5892C2.53826 85.5189 2.73055 83.5168 3.33135 81.582C3.98466 79.485 5.33284 77.5967 7.37568 75.9163C8.44102 75.0244 9.77108 74.2369 11.3665 73.5561Z" fill="#AEDBED"/>
<path d="M52.6348 63.8147L54.7476 63.547C56.9929 63.263 59.0429 64.8536 59.3263 67.0971L59.6006 69.2655C59.8843 71.5099 58.2946 73.5595 56.0502 73.8433L53.9364 74.1112C51.692 74.3949 49.6424 72.8052 49.3586 70.5608L49.0844 68.3925C48.8006 66.148 50.3892 64.0978 52.6348 63.8147ZM48.7013 4.40723C54.1927 3.71298 58.5968 5.15667 61.9125 8.73771C64.5452 11.5626 66.1272 15.0699 66.6567 19.2603C67.5436 26.2703 65.2112 33.3364 59.6633 40.4614C57.7283 42.9458 56.8732 45.6593 57.0987 48.6036C57.1495 49.5892 57.2499 50.6777 57.4011 51.8696C57.6848 54.1141 56.0954 56.1646 53.8498 56.4477L51.737 56.7154C49.4917 56.9994 47.442 55.4097 47.1583 53.1653C46.3502 46.7698 47.3206 41.8209 50.0714 38.3159C53.0415 34.5273 54.9356 30.7821 55.7529 27.0807C56.215 24.9303 56.3023 22.7168 56.014 20.4406C55.7176 18.0928 54.9607 16.3166 53.7434 15.1121C52.3909 13.7057 50.6314 13.2846 48.4643 13.8528C46.4366 14.3661 45.1352 15.9802 44.5614 18.6957C44.5317 18.8277 44.5029 18.9624 44.4766 19.0992C44.0919 21.0931 42.2922 22.4982 40.264 22.4005L38.2755 22.3044C35.814 22.1856 34.0049 19.9326 34.4322 17.5051C34.8551 15.0938 35.7191 12.8898 37.0236 10.8942C38.4377 8.73341 40.5717 7.03201 43.4257 5.79004C44.9191 5.1246 46.6775 4.66308 48.7013 4.40723Z" fill="#442DE3"/>
<path d="M63.7998 114.79L67.2334 116.498C70.8804 118.311 72.3663 122.739 70.5533 126.385L68.8018 129.907C66.9881 133.554 62.5616 135.041 58.9147 133.227L55.4811 131.518C51.8341 129.705 50.3483 125.279 52.1612 121.632L53.9127 118.11C55.7264 114.463 60.1529 112.978 63.7998 114.79Z" fill="#442DE3"/>
<path d="M116.633 21.7243C125.472 26.1803 130.585 32.7674 131.97 41.4815C133.087 48.3713 131.97 55.2345 128.614 62.0743C123.003 73.5132 112.557 81.8159 97.277 86.9823C91.9487 88.7823 87.9979 92.0125 85.4221 96.6704C84.5239 98.2037 83.5979 99.942 82.6434 101.889C80.8462 105.552 76.4602 107.045 72.8465 105.223L69.4436 103.508C65.8307 101.687 64.3576 97.2391 66.154 93.5763C71.2739 83.1388 77.6068 76.662 85.1551 74.1414C93.3107 71.4135 99.8234 67.674 104.695 62.9215C107.506 60.1467 109.824 56.9032 111.646 53.188C113.526 49.3555 114.157 45.9235 113.541 42.8912C112.921 39.4178 110.724 37.0223 106.946 35.7049C103.429 34.447 99.9006 35.5727 96.3649 39.0853C96.1889 39.2543 96.0138 39.4279 95.8401 39.6071C93.2983 42.2239 89.2379 42.5368 86.3226 40.3565L83.4652 38.2201C79.9272 35.5743 79.4681 30.3704 82.5006 27.1441C85.5132 23.9374 88.9732 21.4864 92.8816 19.7888C97.1172 17.9535 101.969 17.5303 107.433 18.5199C110.308 19.0143 113.375 20.0814 116.633 21.7243Z" fill="#442DE3"/>
</svg>
