<svg width="233" height="73" viewBox="0 0 233 73" fill="none" xmlns="http://www.w3.org/2000/svg">
<path d="M0.568596 1.4H19.9486V5.58H12.4626V28H8.0926V5.58H0.568596V1.4ZM25.2918 9V12.192C26.3304 9.836 28.2811 8.658 31.1438 8.658V13.104C29.5984 13.0027 28.2304 13.3827 27.0398 14.244C25.8744 15.08 25.2918 16.4733 25.2918 18.424V28H21.1878V9H25.2918ZM43.2491 22.794L48.1131 9H52.4831L45.1871 28.608C43.3631 33.5227 40.2725 35.8533 35.9151 35.6V31.762C37.1818 31.838 38.2078 31.572 38.9931 30.964C39.7785 30.356 40.4371 29.3807 40.9691 28.038L41.1591 27.658L33.1031 9H37.5871L43.2491 22.794ZM92.5933 14.7C92.5933 18.2213 91.428 21.2867 89.0973 23.896L91.9093 26.784L88.8313 29.558L85.9053 26.556C83.6507 27.848 81.282 28.494 78.7993 28.494C74.9993 28.494 71.744 27.164 69.0333 24.504C66.348 21.8187 65.0053 18.5507 65.0053 14.7C65.0053 10.8493 66.348 7.594 69.0333 4.934C71.7186 2.24866 74.974 0.905998 78.7993 0.905998C82.6247 0.905998 85.88 2.24866 88.5653 4.934C91.2507 7.594 92.5933 10.8493 92.5933 14.7ZM78.7993 24.238C80.1673 24.238 81.4973 23.9467 82.7893 23.364L77.9253 18.386L81.0033 15.612L86.0953 20.818C87.514 19.0447 88.2233 17.0053 88.2233 14.7C88.2233 11.9893 87.3113 9.722 85.4873 7.898C83.6633 6.074 81.434 5.162 78.7993 5.162C76.1646 5.162 73.9353 6.074 72.1113 7.898C70.2873 9.722 69.3753 11.9893 69.3753 14.7C69.3753 17.4107 70.2873 19.678 72.1113 21.502C73.9353 23.326 76.1646 24.238 78.7993 24.238ZM110.288 19.184V9H114.392V28H110.288V25.568C109.021 27.5187 107.058 28.494 104.398 28.494C102.194 28.494 100.42 27.7973 99.0777 26.404C97.7603 24.9853 97.1017 23.0727 97.1017 20.666V9H101.206V20.248C101.206 21.6667 101.586 22.756 102.346 23.516C103.106 24.276 104.144 24.656 105.462 24.656C106.956 24.656 108.134 24.2 108.996 23.288C109.857 22.3507 110.288 20.9827 110.288 19.184ZM123.827 5.39C123.32 5.89667 122.712 6.15 122.003 6.15C121.293 6.15 120.673 5.89667 120.141 5.39C119.634 4.858 119.381 4.23733 119.381 3.528C119.381 2.81866 119.634 2.21066 120.141 1.704C120.647 1.172 121.268 0.905998 122.003 0.905998C122.737 0.905998 123.358 1.172 123.865 1.704C124.371 2.21066 124.625 2.81866 124.625 3.528C124.625 4.23733 124.359 4.858 123.827 5.39ZM124.055 28H119.951V9H124.055V28ZM143.336 11.736L134.482 24.124H143.716V28H128.896V25.264L137.788 12.876H129.276V9H143.336V11.736ZM158.637 1.4H168.555C171.088 1.4 173.241 2.26133 175.015 3.984C176.763 5.70667 177.637 7.822 177.637 10.33C177.637 12.838 176.763 14.9533 175.015 16.676C173.241 18.3987 171.088 19.26 168.555 19.26H163.881V28H158.637V1.4ZM163.881 14.358H168.555C169.669 14.358 170.594 13.978 171.329 13.218C172.063 12.4327 172.431 11.47 172.431 10.33C172.431 9.16467 172.063 8.202 171.329 7.442C170.594 6.682 169.669 6.302 168.555 6.302H163.881V14.358ZM202.065 28H196.403L191.045 18.766H187.055V28H181.811V1.4H192.451C194.908 1.4 196.998 2.26133 198.721 3.984C200.443 5.70667 201.305 7.784 201.305 10.216C201.305 11.8627 200.836 13.3953 199.899 14.814C198.961 16.2073 197.72 17.2587 196.175 17.968L202.065 28ZM192.451 6.302H187.055V14.168H192.451C193.439 14.168 194.287 13.788 194.997 13.028C195.706 12.2427 196.061 11.3053 196.061 10.216C196.061 9.12667 195.706 8.202 194.997 7.442C194.287 6.682 193.439 6.302 192.451 6.302ZM227.998 24.542C225.312 27.202 222.044 28.532 218.194 28.532C214.343 28.532 211.075 27.202 208.39 24.542C205.73 21.8313 204.4 18.5507 204.4 14.7C204.4 10.824 205.73 7.556 208.39 4.896C211.075 2.21066 214.343 0.867998 218.194 0.867998C222.044 0.867998 225.312 2.21066 227.998 4.896C230.683 7.556 232.026 10.824 232.026 14.7C232.026 18.576 230.683 21.8567 227.998 24.542ZM212.076 20.97C213.697 22.5913 215.736 23.402 218.194 23.402C220.651 23.402 222.69 22.5913 224.312 20.97C225.958 19.3233 226.782 17.2333 226.782 14.7C226.782 12.1667 225.958 10.0767 224.312 8.43C222.665 6.78333 220.626 5.96 218.194 5.96C215.762 5.96 213.722 6.78333 212.076 8.43C210.429 10.0767 209.606 12.1667 209.606 14.7C209.606 17.2333 210.429 19.3233 212.076 20.97ZM62.5929 67.44L67.8749 53H72.3589L64.9489 72H60.1989L52.7889 53H57.2729L62.5929 67.44ZM93.3296 64.248H78.2056C78.5096 65.6667 79.1936 66.7687 80.2576 67.554C81.3469 68.3393 82.6896 68.732 84.2856 68.732C86.4389 68.732 88.0729 67.9467 89.1876 66.376L92.5696 68.352C90.7202 71.1133 87.9462 72.494 84.2476 72.494C81.1822 72.494 78.6869 71.5567 76.7616 69.682C74.8616 67.782 73.9116 65.388 73.9116 62.5C73.9116 59.688 74.8489 57.3193 76.7236 55.394C78.5729 53.4687 80.9796 52.506 83.9436 52.506C86.7049 52.506 88.9849 53.4813 90.7836 55.432C92.5822 57.3827 93.4816 59.7513 93.4816 62.538C93.4816 63.0447 93.4309 63.6147 93.3296 64.248ZM78.1676 60.904H89.3396C89.0609 59.4093 88.4276 58.2567 87.4396 57.446C86.4769 56.6353 85.2989 56.23 83.9056 56.23C82.3856 56.23 81.1189 56.648 80.1056 57.484C79.0922 58.32 78.4462 59.46 78.1676 60.904ZM101.957 53V56.192C102.995 53.836 104.946 52.658 107.809 52.658V57.104C106.263 57.0027 104.895 57.3827 103.705 58.244C102.539 59.08 101.957 60.4733 101.957 62.424V72H97.8528V53H101.957ZM114.619 58.244C114.619 58.8267 114.923 59.308 115.531 59.688C116.139 60.0427 117.026 60.3847 118.191 60.714C119.078 60.9167 119.85 61.132 120.509 61.36C121.168 61.588 121.864 61.93 122.599 62.386C123.334 62.8167 123.891 63.3993 124.271 64.134C124.676 64.8433 124.866 65.6793 124.841 66.642C124.841 68.466 124.132 69.8973 122.713 70.936C121.294 71.9747 119.534 72.494 117.431 72.494C115.556 72.494 113.948 72.1013 112.605 71.316C111.262 70.5307 110.287 69.4413 109.679 68.048L113.213 65.996C113.846 67.82 115.252 68.732 117.431 68.732C119.584 68.732 120.661 68.0227 120.661 66.604C120.661 65.5653 119.458 64.7547 117.051 64.172C116.139 63.944 115.366 63.716 114.733 63.488C114.125 63.26 113.441 62.9307 112.681 62.5C111.946 62.0693 111.376 61.4993 110.971 60.79C110.591 60.0807 110.414 59.2573 110.439 58.32C110.439 56.572 111.098 55.166 112.415 54.102C113.758 53.038 115.417 52.506 117.393 52.506C118.964 52.506 120.357 52.8607 121.573 53.57C122.814 54.254 123.764 55.2167 124.423 56.458L120.965 58.396C120.332 56.952 119.141 56.23 117.393 56.23C116.582 56.23 115.911 56.4073 115.379 56.762C114.872 57.1167 114.619 57.6107 114.619 58.244ZM132.862 49.39C132.355 49.8967 131.747 50.15 131.038 50.15C130.329 50.15 129.708 49.8967 129.176 49.39C128.669 48.858 128.416 48.2373 128.416 47.528C128.416 46.8187 128.669 46.2107 129.176 45.704C129.683 45.172 130.303 44.906 131.038 44.906C131.773 44.906 132.393 45.172 132.9 45.704C133.407 46.2107 133.66 46.8187 133.66 47.528C133.66 48.2373 133.394 48.858 132.862 49.39ZM133.09 72H128.986V53H133.09V72ZM154.689 69.606C152.764 71.5313 150.395 72.494 147.583 72.494C144.771 72.494 142.403 71.5313 140.477 69.606C138.527 67.6553 137.551 65.2867 137.551 62.5C137.551 59.7133 138.527 57.3447 140.477 55.394C142.403 53.4687 144.771 52.506 147.583 52.506C150.395 52.506 152.764 53.4687 154.689 55.394C156.64 57.3447 157.615 59.7133 157.615 62.5C157.615 65.2867 156.64 67.6553 154.689 69.606ZM141.655 62.5C141.655 64.2227 142.225 65.654 143.365 66.794C144.505 67.934 145.911 68.504 147.583 68.504C149.255 68.504 150.661 67.934 151.801 66.794C152.941 65.654 153.511 64.2227 153.511 62.5C153.511 60.7773 152.941 59.346 151.801 58.206C150.661 57.066 149.255 56.496 147.583 56.496C145.911 56.496 144.505 57.066 143.365 58.206C142.225 59.346 141.655 60.7773 141.655 62.5ZM172.08 52.506C174.284 52.506 176.045 53.2153 177.362 54.634C178.705 56.0273 179.376 57.9273 179.376 60.334V72H175.272V60.752C175.272 59.3333 174.892 58.244 174.132 57.484C173.372 56.724 172.333 56.344 171.016 56.344C169.521 56.344 168.343 56.8127 167.482 57.75C166.621 58.662 166.19 60.0173 166.19 61.816V72H162.086V53H166.19V55.432C167.457 53.4813 169.42 52.506 172.08 52.506Z" fill="white"/>
<path d="M156.167 35.6H234.002V37.5H156.167V35.6Z" fill="white"/>
</svg>
